# xmcd
#
# Track frame offsets:
# 150
# 24410
# 55649
# 84238
# 128790
# 144072
# 173524
# 191279
# 212603
# 240300
# 262307
#
# Disc length: 3977 seconds
#
#
# Revision: 1
# Processed by: cddbd v1.5.1PL0 Copyright (c) Steve Scherf et al.
# Submitted via: FreeRIP 2.51 
#
DISCID=810f870b
DTITLE=Great Guitarists - Dutch Jazz Giants Vol 8
DYEAR=1999
DGENRE=Jazz
TTITLE0=Wim Overgauw - Nobody Else But Me
TTITLE1=Maarten van der Grinten - Adriaan and Olivier
TTITLE2=Joop Scholten - Playin' In The Yard
TTITLE3=Martijn van Iterson - Song For Niels
TTITLE4=Maarten van der Grinten a.o. - Four Brothers
TTITLE5=Jesse van Ruller - Night Express
TTITLE6=Olaf Tarenskeen - Beautiful Love
TTITLE7=Joop Scholten - A Bit Of Sweetness
TTITLE8=Maarten van der Grinten, Jesse van Ruller - Lullaby Of The Leaves
TTITLE9=Maarten van der Grinten - These Foolish Things
TTITLE10=Maarten van der Grinten - Monk E.C. Monk E. Blue
EXTD=YEAR: 1999
EXTT0=
EXTT1=
EXTT2=
EXTT3=
EXTT4=
EXTT5=
EXTT6=
EXTT7=
EXTT8=
EXTT9=
EXTT10=
PLAYORDER=
